<?xml version="1.0" encoding="utf-8"?>
<!-- Generator: Adobe Illustrator 21.0.2, SVG Export Plug-In . SVG Version: 6.00 Build 0)  -->
<svg version="1.1" id="Layer_1" xmlns="http://www.w3.org/2000/svg" xmlns:xlink="http://www.w3.org/1999/xlink" x="0px" y="0px"
	 viewBox="0 0 625 365" style="enable-background:new 0 0 625 365;" xml:space="preserve">
<style type="text/css">
	.st0{fill:#F4EBC9;}
	.st1{fill:#9400D3;}
	.st2{fill:#F7B600;}
</style>
<g>
	<polygon class="st0" points="485.2,107.4 557,107.3 589.6,167.7 517.2,168.2 	"/>
</g>
<g>
	<g>
		<polygon class="st1" points="517.7,168.3 590.1,168.2 549.2,230.1 477.8,230.3 		"/>
	</g>
</g>
<g>
	<g>
		<polygon class="st2" points="485.3,107 446.4,169.5 478.3,230 518,169 		"/>
	</g>
</g>
<g>
	<polygon class="st0" points="351.2,107.4 423,107.3 455.6,167.7 383.2,168.2 	"/>
</g>
<g>
	<g>
		<polygon class="st1" points="383.7,168.3 456.1,168.2 415.2,230.1 343.8,230.3 		"/>
	</g>
</g>
<g>
	<g>
		<polygon class="st2" points="351.3,107 312.4,169.5 344.3,230 384,169 		"/>
	</g>
</g>
<g>
	<polygon class="st0" points="217.2,107.4 289,107.3 321.6,167.7 249.2,168.2 	"/>
</g>
<g>
	<g>
		<polygon class="st1" points="249.7,168.3 322.1,168.2 281.2,230.1 209.8,230.3 		"/>
	</g>
</g>
<g>
	<g>
		<polygon class="st2" points="217.3,107 178.4,169.5 210.3,230 250,169 		"/>
	</g>
</g>
<g>
	<polygon class="st0" points="83.2,107.4 155,107.3 187.6,167.7 115.2,168.2 	"/>
</g>
<g>
	<g>
		<polygon class="st1" points="115.7,168.3 188.1,168.2 147.2,230.1 75.8,230.3 		"/>
	</g>
</g>
<g>
	<g>
		<polygon class="st2" points="83.3,107 44.4,169.5 76.3,230 116,169 		"/>
	</g>
</g>
</svg>
