<?xml version="1.0" encoding="utf-8"?>
<!-- Generator: Adobe Illustrator 21.0.2, SVG Export Plug-In . SVG Version: 6.00 Build 0)  -->
<svg version="1.1" id="Layer_1" xmlns="http://www.w3.org/2000/svg" xmlns:xlink="http://www.w3.org/1999/xlink" x="0px" y="0px"
	 viewBox="0 0 625 177" style="enable-background:new 0 0 625 177;" xml:space="preserve">
<style type="text/css">
	.st0{fill:#F4EBC9;}
	.st1{fill:#9400D3;}
	.st2{fill:#F7B600;}
</style>
<g>
	<polygon class="st0" points="485.2,25.4 557,25.3 589.6,85.7 517.2,86.2 	"/>
</g>
<g>
	<g>
		<polygon class="st1" points="517.7,86.3 590.1,86.2 549.2,148.1 477.8,148.3 		"/>
	</g>
</g>
<g>
	<g>
		<polygon class="st2" points="485.3,25 446.4,87.5 478.3,148 518,87 		"/>
	</g>
</g>
<g>
	<polygon class="st0" points="351.2,25.4 423,25.3 455.6,85.7 383.2,86.2 	"/>
</g>
<g>
	<g>
		<polygon class="st1" points="383.7,86.3 456.1,86.2 415.2,148.1 343.8,148.3 		"/>
	</g>
</g>
<g>
	<g>
		<polygon class="st2" points="351.3,25 312.4,87.5 344.3,148 384,87 		"/>
	</g>
</g>
<g>
	<polygon class="st0" points="217.2,25.4 289,25.3 321.6,85.7 249.2,86.2 	"/>
</g>
<g>
	<g>
		<polygon class="st1" points="249.7,86.3 322.1,86.2 281.2,148.1 209.8,148.3 		"/>
	</g>
</g>
<g>
	<g>
		<polygon class="st2" points="217.3,25 178.4,87.5 210.3,148 250,87 		"/>
	</g>
</g>
<g>
	<polygon class="st0" points="83.2,25.4 155,25.3 187.6,85.7 115.2,86.2 	"/>
</g>
<g>
	<g>
		<polygon class="st1" points="115.7,86.3 188.1,86.2 147.2,148.1 75.8,148.3 		"/>
	</g>
</g>
<g>
	<g>
		<polygon class="st2" points="83.3,25 44.4,87.5 76.3,148 116,87 		"/>
	</g>
</g>
</svg>
