<?xml version="1.0" encoding="utf-8"?>
<!-- Generator: Adobe Illustrator 21.0.2, SVG Export Plug-In . SVG Version: 6.00 Build 0)  -->
<svg version="1.1" id="Layer_1" xmlns="http://www.w3.org/2000/svg" xmlns:xlink="http://www.w3.org/1999/xlink" x="0px" y="0px"
	 viewBox="0 0 2300 2000" style="enable-background:new 0 0 2300 2000;" xml:space="preserve">
<style type="text/css">
	.st0{opacity:0.18;fill:url(#SVGID_1_);enable-background:new    ;}
	.st1{fill:none;stroke:#9D37D3;stroke-width:1.1497;stroke-miterlimit:10;}
	.st2{opacity:0.26;fill:url(#SVGID_2_);enable-background:new    ;}
	.st3{fill:#FFFFFF;}
	.st4{opacity:0.22;fill:url(#SVGID_3_);enable-background:new    ;}
	.st5{opacity:8.000000e-02;fill:#9D37D3;enable-background:new    ;}
	.st6{opacity:0.22;fill:url(#SVGID_4_);enable-background:new    ;}
	.st7{opacity:0.22;fill:url(#SVGID_5_);enable-background:new    ;}
	.st8{opacity:0.42;fill:#9D37D3;enable-background:new    ;}
	.st9{fill:url(#SVGID_6_);}
	.st10{fill:#9D37D3;}
	.st11{fill:#7304AD;}
	.st12{opacity:0.34;fill:url(#SVGID_7_);enable-background:new    ;}
	.st13{opacity:0.14;fill:#7304AD;enable-background:new    ;}
	.st14{opacity:0.34;fill:url(#SVGID_8_);enable-background:new    ;}
	.st15{opacity:0.34;fill:url(#SVGID_9_);enable-background:new    ;}
	.st16{opacity:0.34;fill:url(#SVGID_10_);enable-background:new    ;}
	.st17{opacity:0.34;fill:url(#SVGID_11_);enable-background:new    ;}
	.st18{opacity:0.34;fill:url(#SVGID_12_);enable-background:new    ;}
	.st19{fill:none;stroke:#CA81EF;stroke-width:1.061;stroke-miterlimit:10;}
	.st20{fill:url(#SVGID_13_);}
	.st21{fill:none;stroke:#FFFFFF;stroke-width:13.0827;stroke-linecap:round;stroke-linejoin:round;stroke-miterlimit:10;}
	.st22{fill:url(#SVGID_14_);}
	.st23{opacity:0.27;fill:url(#SVGID_15_);enable-background:new    ;}
	.st24{fill:url(#SVGID_16_);}
	.st25{fill:url(#SVGID_17_);}
	.st26{fill:url(#SVGID_18_);}
	.st27{fill:url(#SVGID_19_);}
	.st28{opacity:0.67;}
	.st29{opacity:0.2;}
	.st30{display:none;}
	.st31{display:inline;fill:url(#SVGID_20_);}
	.st32{display:inline;fill:#7304AD;}
	.st33{display:inline;fill:#9D37D3;}
	.st34{display:inline;fill:url(#SVGID_21_);}
	.st35{display:inline;fill:#7F02C1;}
	.st36{display:inline;fill:url(#SVGID_22_);}
	.st37{display:inline;fill:#F9B200;}
	.st38{display:inline;opacity:0.68;fill:url(#SVGID_23_);enable-background:new    ;}
	.st39{display:inline;opacity:0.76;fill:url(#SVGID_24_);enable-background:new    ;}
</style>
<linearGradient id="SVGID_1_" gradientUnits="userSpaceOnUse" x1="1149.9851" y1="-1099.3859" x2="1149.9851" y2="4.0404" gradientTransform="matrix(1 0 0 1 0 1600)">
	<stop  offset="0" style="stop-color:#FFFFFF"/>
	<stop  offset="0.48" style="stop-color:#D1A1EA"/>
	<stop  offset="1" style="stop-color:#9D37D3"/>
</linearGradient>
<path class="st0" d="M1886.5,1267.1c-1.4,16.7-13.6,32.9-34.8,48.3c-19.7,14.3-47.1,28-81,40.6H533c-24.9-13.3-46.5-29.4-64.7-49.3
	c-6.5-7.1-12.4-14.6-17.7-22.2c-93.4-135.4,4.2-345.5,123-485.5c30.4-35.8,62.2-67.1,92.6-91.4c46.9-37.4,90.3-58,119.8-53
	c25.2,4.3,32.5,26.1,41.2,53c10.7,33.6,23.5,75.3,75.1,101.6c9.9,5.1,20.4,9,31.2,12.2c182.1,51.6,487.4-157.1,581-89.4
	c53.1,38.4-35.8,112.4-2.6,225.9C1568.2,1150.6,1894.1,1175.5,1886.5,1267.1z"/>
<path class="st1" d="M695.1,1047.8"/>
<g id="Clock_1_">
	
		<linearGradient id="SVGID_2_" gradientUnits="userSpaceOnUse" x1="1737.6866" y1="-684.13" x2="1737.6866" y2="-1342.1433" gradientTransform="matrix(1 0 0 1 0 1600)">
		<stop  offset="0" style="stop-color:#FFFFFF"/>
		<stop  offset="0.1148" style="stop-color:#FCFAFE"/>
		<stop  offset="0.2579" style="stop-color:#F5EAFA"/>
		<stop  offset="0.4161" style="stop-color:#E8D1F5"/>
		<stop  offset="0.5851" style="stop-color:#D7ADED"/>
		<stop  offset="0.7628" style="stop-color:#C180E3"/>
		<stop  offset="0.9451" style="stop-color:#A649D7"/>
		<stop  offset="1" style="stop-color:#9D37D3"/>
	</linearGradient>
	<circle class="st2" cx="1737.7" cy="503.1" r="121.7"/>
	<path class="st3" d="M1677.3,573.6L1677.3,573.6c2.4,2,5.9,1.6,7.9-0.7l43.6-52.6c2-2.4,1.6-5.9-0.7-7.9l0,0
		c-2.4-2-5.9-1.6-7.9,0.7l-43.6,52.6C1674.6,568.1,1675,571.6,1677.3,573.6z"/>
	<path class="st3" d="M1747.2,493L1747.2,493c1.9,1.4,4.5,1,5.9-0.9l37.5-51.3c1.4-1.9,1-4.5-0.9-5.9l0,0c-1.9-1.4-4.5-1-5.9,0.9
		l-37.5,51.3C1745,489,1745.4,491.6,1747.2,493z"/>
	<circle class="st3" cx="1737.9" cy="501.8" r="18.2"/>
</g>
<g id="Window_1_">
	
		<linearGradient id="SVGID_3_" gradientUnits="userSpaceOnUse" x1="779.1116" y1="-774.3654" x2="779.1116" y2="-1879.4788" gradientTransform="matrix(1 0 0 1 0 1600)">
		<stop  offset="0" style="stop-color:#FFFFFF"/>
		<stop  offset="6.245208e-02" style="stop-color:#F8F0FC"/>
		<stop  offset="0.4026" style="stop-color:#D1A1EA"/>
		<stop  offset="0.683" style="stop-color:#B568DE"/>
		<stop  offset="0.8895" style="stop-color:#A444D6"/>
		<stop  offset="1" style="stop-color:#9D37D3"/>
	</linearGradient>
	<path class="st4" d="M1001,356.2v448.3c0,23.2-22.3,42.2-49.5,42.2H606.7c-9.9,0-19.1-2.5-26.8-6.8c-13.7-7.5-22.7-20.6-22.7-35.4
		V356.2c0-14.8,9-27.9,22.7-35.4c7.8-4.3,16.9-6.8,26.8-6.8h344.9C978.8,314,1001,333,1001,356.2z"/>
	<path class="st5" d="M1001,488.3v316.2c0,23.2-22.3,42.2-49.5,42.2H606.7c-27.3,0-49.5-19-49.5-42.2V589.4
		c25.3-20.5,57-37.5,90.5-34.8c46.6,3.8,47.2,41.3,93.4,51.9C831.4,627.2,926.9,506,1001,488.3z"/>
	
		<linearGradient id="SVGID_4_" gradientUnits="userSpaceOnUse" x1="569.0042" y1="-780.5826" x2="569.0042" y2="-1857.6747" gradientTransform="matrix(1 0 0 1 0 1600)">
		<stop  offset="0" style="stop-color:#FFFFFF"/>
		<stop  offset="6.245208e-02" style="stop-color:#F8F0FC"/>
		<stop  offset="0.4026" style="stop-color:#D1A1EA"/>
		<stop  offset="0.683" style="stop-color:#B568DE"/>
		<stop  offset="0.8895" style="stop-color:#A444D6"/>
		<stop  offset="1" style="stop-color:#9D37D3"/>
	</linearGradient>
	<path class="st6" d="M580.9,325.2v510.3c0,1.6-0.4,3.1-1.1,4.4c-13.7-7.5-22.7-20.6-22.7-35.4V356.2c0-14.8,9.1-27.9,22.7-35.4
		C580.5,322.1,580.9,323.6,580.9,325.2z"/>
	
		<linearGradient id="SVGID_5_" gradientUnits="userSpaceOnUse" x1="801.251" y1="-756.1368" x2="801.251" y2="-1286" gradientTransform="matrix(1 0 0 1 0 1600)">
		<stop  offset="0" style="stop-color:#FFFFFF"/>
		<stop  offset="6.245208e-02" style="stop-color:#F8F0FC"/>
		<stop  offset="0.4026" style="stop-color:#D1A1EA"/>
		<stop  offset="0.683" style="stop-color:#B568DE"/>
		<stop  offset="0.8895" style="stop-color:#A444D6"/>
		<stop  offset="1" style="stop-color:#9D37D3"/>
	</linearGradient>
	<path class="st7" d="M809.1,322.4v510.3c0,6.2-5.9,11.2-13.2,11.2h-2.5V314h11.3C807.5,316.1,809.1,319.1,809.1,322.4z"/>
	<rect x="557.1" y="471.4" class="st3" width="443.9" height="21"/>
	<rect x="557.1" y="429.3" class="st3" width="443.9" height="21"/>
	<rect x="557.1" y="387.3" class="st3" width="443.9" height="21"/>
	<rect x="557.1" y="345.2" class="st3" width="443.9" height="21"/>
	<rect x="764.7" y="314" class="st3" width="28.7" height="529.7"/>
</g>
<path class="st8" d="M1882.1,1346.9c0,2.1-1,4-2.6,5.4s-3.9,2.3-6.3,2.3H456c-4.9,0-8.9-3.4-8.9-7.7c0-2.1,1-4,2.6-5.4
	s3.9-2.3,6.3-2.3h1417C1878,1339.2,1882.1,1342.7,1882.1,1346.9z"/>
<g id="laptop">
	
		<linearGradient id="SVGID_6_" gradientUnits="userSpaceOnUse" x1="1168.2" y1="-110.5546" x2="1168.2" y2="-1201.4203" gradientTransform="matrix(1 0 0 1 0 1600)">
		<stop  offset="0" style="stop-color:#9D37D3"/>
		<stop  offset="1" style="stop-color:#7304AD"/>
	</linearGradient>
	<path class="st9" d="M1483.1,974.9v324.7H853.3V974.9c0-26.8,24.3-48.7,54.1-48.7H1429C1458.9,926.2,1483.1,948,1483.1,974.9z"/>
	<path class="st10" d="M1460.6,1303.7H875.8V985.6c0-21.6,17.5-39.1,39.1-39.1h506.7c21.6,0,39.1,17.5,39.1,39.1L1460.6,1303.7
		L1460.6,1303.7z"/>
	<path class="st11" d="M1532,1338.3H813.9c-10.7,0-19.4-8.7-19.4-19.4l0,0c0-10.7,8.7-19.4,19.4-19.4H1532
		c10.7,0,19.4,8.7,19.4,19.4l0,0C1551.4,1329.6,1542.7,1338.3,1532,1338.3z"/>
	
		<linearGradient id="SVGID_7_" gradientUnits="userSpaceOnUse" x1="914.9" y1="-564.15" x2="1160.5" y2="-564.15" gradientTransform="matrix(1 0 0 1 0 1600)">
		<stop  offset="0" style="stop-color:#AF9C9C"/>
		<stop  offset="0.8582" style="stop-color:#C2B5B5"/>
		<stop  offset="1" style="stop-color:#C6BABA"/>
	</linearGradient>
	<path class="st12" d="M1160.5,999.6v72.5c0,11.2-9.1,20.3-20.3,20.3h-205c-11.2,0-20.3-9.1-20.3-20.3v-72.5
		c0-11.2,9.1-20.3,20.3-20.3h205C1151.4,979.3,1160.5,988.4,1160.5,999.6z"/>
	<path class="st13" d="M1380.6,1284.1h-143c-16.4,0-29.9-13.4-29.9-29.9v-237c0-16.4,13.4-29.9,29.9-29.9h143
		c16.4,0,29.9,13.4,29.9,29.9v237C1410.5,1270.6,1397.1,1284.1,1380.6,1284.1z"/>
	
		<linearGradient id="SVGID_8_" gradientUnits="userSpaceOnUse" x1="915.8" y1="-464.8" x2="1159.7" y2="-464.8" gradientTransform="matrix(1 0 0 1 0 1600)">
		<stop  offset="0" style="stop-color:#AF9C9C"/>
		<stop  offset="0.8582" style="stop-color:#C2B5B5"/>
		<stop  offset="1" style="stop-color:#C6BABA"/>
	</linearGradient>
	<path class="st14" d="M1144.6,1151.4H930.8c-8.2,0-15-6.7-15-15v-2.4c0-8.2,6.7-15,15-15h213.9c8.2,0,15,6.7,15,15v2.4
		C1159.6,1144.7,1152.9,1151.4,1144.6,1151.4z"/>
	
		<linearGradient id="SVGID_9_" gradientUnits="userSpaceOnUse" x1="915.8" y1="-402.8" x2="1159.7" y2="-402.8" gradientTransform="matrix(1 0 0 1 0 1600)">
		<stop  offset="0" style="stop-color:#AF9C9C"/>
		<stop  offset="0.8582" style="stop-color:#C2B5B5"/>
		<stop  offset="1" style="stop-color:#C6BABA"/>
	</linearGradient>
	<path class="st15" d="M1144.6,1213.4H930.8c-8.2,0-15-6.7-15-15v-2.4c0-8.2,6.7-15,15-15h213.9c8.2,0,15,6.7,15,15v2.4
		C1159.6,1206.6,1152.9,1213.4,1144.6,1213.4z"/>
	
		<linearGradient id="SVGID_10_" gradientUnits="userSpaceOnUse" x1="915.8" y1="-340.8999" x2="1037.7" y2="-340.8999" gradientTransform="matrix(1 0 0 1 0 1600)">
		<stop  offset="0" style="stop-color:#AF9C9C"/>
		<stop  offset="0.8582" style="stop-color:#C2B5B5"/>
		<stop  offset="1" style="stop-color:#C6BABA"/>
	</linearGradient>
	<path class="st16" d="M1021.5,1275.3H932c-8.9,0-16.2-7.3-16.2-16.2l0,0c0-8.9,7.3-16.2,16.2-16.2h89.5c8.9,0,16.2,7.3,16.2,16.2
		l0,0C1037.7,1268,1030.4,1275.3,1021.5,1275.3z"/>
	
		<linearGradient id="SVGID_11_" gradientUnits="userSpaceOnUse" x1="1248.2001" y1="-432.3999" x2="1370.1" y2="-432.3999" gradientTransform="matrix(1 0 0 1 0 1600)">
		<stop  offset="0" style="stop-color:#AF9C9C"/>
		<stop  offset="0.8582" style="stop-color:#C2B5B5"/>
		<stop  offset="1" style="stop-color:#C6BABA"/>
	</linearGradient>
	<path class="st17" d="M1353.9,1183.8h-89.5c-8.9,0-16.2-7.3-16.2-16.2l0,0c0-8.9,7.3-16.2,16.2-16.2h89.5c8.9,0,16.2,7.3,16.2,16.2
		l0,0C1370.1,1176.5,1362.8,1183.8,1353.9,1183.8z"/>
	
		<linearGradient id="SVGID_12_" gradientUnits="userSpaceOnUse" x1="1248.2001" y1="-367.7" x2="1370.1" y2="-367.7" gradientTransform="matrix(1 0 0 1 0 1600)">
		<stop  offset="0" style="stop-color:#AF9C9C"/>
		<stop  offset="0.8582" style="stop-color:#C2B5B5"/>
		<stop  offset="1" style="stop-color:#C6BABA"/>
	</linearGradient>
	<path class="st18" d="M1353.9,1248.5h-89.5c-8.9,0-16.2-7.3-16.2-16.2l0,0c0-8.9,7.3-16.2,16.2-16.2h89.5c8.9,0,16.2,7.3,16.2,16.2
		l0,0C1370.1,1241.2,1362.8,1248.5,1353.9,1248.5z"/>
	<g>
		<path class="st19" d="M1309.2,1070.3"/>
		
			<linearGradient id="SVGID_13_" gradientUnits="userSpaceOnUse" x1="1309.2" y1="-407.9949" x2="1309.2" y2="-741.1431" gradientTransform="matrix(1 0 0 1 0 1600)">
			<stop  offset="0" style="stop-color:#F2C300"/>
			<stop  offset="0.3877" style="stop-color:#F7BD14"/>
			<stop  offset="1" style="stop-color:#FFB52F"/>
		</linearGradient>
		<circle class="st20" cx="1309.2" cy="1070.3" r="51.4"/>
		<polyline class="st21" points="1288.3,1071.9 1302.8,1090.6 1335.5,1055.4 		"/>
	</g>
</g>
<g id="Cup_of_tea">
	<g>
		<g>
			<path class="st11" d="M1656.8,1182.2c-33.7,0-61.4,28.8-61.4,64.3c0,35.6,30,64.4,63.7,64.4v-20c-23.2,0-44.7-19.9-44.7-44.4
				c0-24.4,19.9-44.1,43.1-44.1L1656.8,1182.2z"/>
			
				<linearGradient id="SVGID_14_" gradientUnits="userSpaceOnUse" x1="-1951.5483" y1="-351.0479" x2="-1739.3975" y2="-351.0479" gradientTransform="matrix(-1 0 0 1 -145.2832 1600)">
				<stop  offset="0" style="stop-color:#9D37D3"/>
				<stop  offset="1" style="stop-color:#7304AD"/>
			</linearGradient>
			<path class="st22" d="M1656.6,1171.4l2.6,136.4c0.4,16.9,14.1,30.4,31,30.4h79.4c4.6,0,8.9-1,12.8-2.7l0,0
				c10.7-4.8,18.1-15.7,18.1-28.1v-136.4c0-6.2-5.1-11.2-11.2-11.2l-110,0.4h-11.5C1661.4,1160,1656.5,1165.1,1656.6,1171.4z"/>
		</g>
		
			<linearGradient id="SVGID_15_" gradientUnits="userSpaceOnUse" x1="-1905.7625" y1="-843.5737" x2="-1905.7625" y2="-215.7512" gradientTransform="matrix(-1 0 0 1 -145.2832 1600)">
			<stop  offset="0" style="stop-color:#FFFFFF"/>
			<stop  offset="0.48" style="stop-color:#D1A1EA"/>
			<stop  offset="1" style="stop-color:#9D37D3"/>
		</linearGradient>
		<path class="st23" d="M1630.6,780c-5.1,26.8-6.7,62.1,12.8,89.9c18.8,26.5,38.5,20.1,57.8,46.5c26,35.7,22.5,91.8,9.6,128.4
			c-8.1,23.3-22.1,35.2-21.6,58.1c0.5,23.2,15.8,44.9,25.2,57.4h43c12.1-6.4,28.8-17.9,35.3-36.9c9.5-27.8-12.5-43.1-9.6-70.6
			c4.7-45.3,69.1-49.6,97.9-102.7c11-20.4,20.6-55.1,3.2-113.9L1630.6,780z"/>
	</g>
	<path class="st11" d="M1656.6,1171.4l2.6,136.4c0.4,16.9,14.1,30.4,31,30.4h52.8c-18-2.6-35.3-9.9-48-23.1
		c-16.2-16.8-18.5-38-21.2-61.6c-5.4-48.4,10.2-74.3,5.4-93.6h-11.5C1661.4,1160,1656.5,1165.1,1656.6,1171.4z"/>
	<g>
		<rect x="1756.2" y="1159.7" class="st3" width="5.4" height="55.1"/>
		
			<linearGradient id="SVGID_16_" gradientUnits="userSpaceOnUse" x1="-1903.4401" y1="-341.9865" x2="-1903.4401" y2="-408.7264" gradientTransform="matrix(-1 0 0 1 -145.2832 1600)">
			<stop  offset="0" style="stop-color:#F2C300"/>
			<stop  offset="0.3877" style="stop-color:#F7BD14"/>
			<stop  offset="1" style="stop-color:#FFB52F"/>
		</linearGradient>
		<path class="st24" d="M1743.3,1248.7h29.7c2.7,0,4.9-2.2,4.9-4.9V1219c0-2.7-2.2-4.9-4.9-4.9h-29.7c-2.7,0-4.9,2.2-4.9,4.9v24.8
			C1738.3,1246.5,1740.6,1248.7,1743.3,1248.7z"/>
	</g>
</g>
<g>
	<g>
		
			<linearGradient id="SVGID_17_" gradientUnits="userSpaceOnUse" x1="536.9164" y1="-540.9438" x2="536.9164" y2="-292.1644" gradientTransform="matrix(1 0 0 1 0 1600)">
			<stop  offset="0" style="stop-color:#AF9C9C"/>
			<stop  offset="0.8582" style="stop-color:#C2B5B5"/>
			<stop  offset="1" style="stop-color:#C6BABA"/>
		</linearGradient>
		<path class="st25" d="M601.8,1212.1c0,0-42.4-19.6-70.3-36c-28.5-16.7-48.8-58-59.1-85.4c-1.4-4,2.1-8,6.2-6.8
			C501.2,1089.4,563,1108.6,601.8,1212.1z"/>
		
			<linearGradient id="SVGID_18_" gradientUnits="userSpaceOnUse" x1="584.6295" y1="-540.9438" x2="584.6295" y2="-292.1644" gradientTransform="matrix(1 0 0 1 0 1600)">
			<stop  offset="0" style="stop-color:#AF9C9C"/>
			<stop  offset="0.8582" style="stop-color:#C2B5B5"/>
			<stop  offset="1" style="stop-color:#C6BABA"/>
		</linearGradient>
		<path class="st26" d="M566.4,1018.5c-2.2-1.3-5.1-0.1-5.8,2.4c-2.7,10-13.3,26.3-5.1,60.4c7.1,30.3,51.8,83.8,52.2,119.5
			C607.7,1200.7,645.5,1064.2,566.4,1018.5z"/>
		
			<linearGradient id="SVGID_19_" gradientUnits="userSpaceOnUse" x1="662.6575" y1="-540.9438" x2="662.6575" y2="-292.1644" gradientTransform="matrix(1 0 0 1 0 1600)">
			<stop  offset="0" style="stop-color:#AF9C9C"/>
			<stop  offset="0.8582" style="stop-color:#C2B5B5"/>
			<stop  offset="1" style="stop-color:#C6BABA"/>
		</linearGradient>
		<path class="st27" d="M621.6,1214c0,0-7.8-98.3,75-131.2c3.3-1.3,7.1,1.2,7.1,4.7c0.3,13.7-0.5,43.7-13.8,59.6
			C672.4,1168.3,641.3,1182.9,621.6,1214z"/>
		<path class="st10" d="M697.6,1235.7l-25.9,75.7l-2.2,6.6l-1.2,3.2c-1.6,4.6-4.3,8.6-8,11.5c-4.6,3.8-10.5,6.2-16.9,6.2h-62.5
			c-11.5,0-21.7-7.5-25-18.4l-25.9-85.1c-1.2-3.8-0.7-7.8,1.2-10.8c2.4-4.2,6.8-7.1,12.2-7.1h141
			C693.9,1217.1,700.6,1226.6,697.6,1235.7z"/>
	</g>
	<g class="st28">
		<g class="st29">
			<path class="st11" d="M488.8,1098.3c18.7,12.9,36,27.8,52,43.9c15.8,16.3,30.4,33.9,42.9,52.9c-7.1-8.8-14.3-17.5-21.8-25.9
				c-7.5-8.4-15.1-16.7-22.9-24.9c-7.8-8.1-15.9-15.9-24.3-23.6C505.9,1113.2,497.5,1105.7,488.8,1098.3z"/>
		</g>
		<g class="st29">
			<path class="st11" d="M569.8,1038.9c6.8,9.9,12.9,20.3,18,31.2c5.1,10.8,9.2,22.4,12.5,33.9c3.2,11.6,5.5,23.4,6.8,35.5
				c1.3,12,1.6,24.1,0.8,36c-0.3-12-1.3-23.9-3-35.7c-0.8-5.9-2-11.8-3-17.6c-1.2-5.9-2.5-11.6-4.2-17.4
				c-3.2-11.5-7.1-22.8-11.8-33.8C580.9,1059.9,575.6,1049.3,569.8,1038.9z"/>
		</g>
		<g class="st29">
			<path class="st11" d="M626.4,1197.1c2.2-9.6,5.4-18.9,9.5-27.9c2-4.5,4.2-8.9,6.6-13.3c2.4-4.3,5-8.6,7.6-12.6
				c5.5-8.1,11.6-15.9,18.4-23.1c6.8-7.1,14.3-13.7,22.4-19.5c-7.4,6.6-14.2,13.5-20.5,20.9c-6.3,7.4-12.5,15.1-17.9,23.1
				C641.7,1160.9,633,1178.6,626.4,1197.1z"/>
		</g>
	</g>
	<path class="st11" d="M671.4,1311.3l-2.2,6.6l-1.2,3.2c-1.6,4.6-4.3,8.6-8,11.5c-4.6,3.8-10.5,6.2-16.9,6.2h-62.5
		c-11.5,0-21.7-7.5-25-18.4l-25.9-85.1c-1.2-3.8-0.7-7.8,1.2-10.8c2.4-4.2,6.8-7.1,12.2-7.1h7.6c8.3,21.8,17.5,59.1,50,79.8
		C625.7,1312.8,652.1,1311.6,671.4,1311.3z"/>
</g>
<g id="Lamp" class="st30">
	
		<linearGradient id="SVGID_20_" gradientUnits="userSpaceOnUse" x1="395.6326" y1="-634.1" x2="491.5751" y2="-634.1" gradientTransform="matrix(1 0 0 1 0 1600)">
		<stop  offset="0" style="stop-color:#F2C300"/>
		<stop  offset="0.3877" style="stop-color:#F7BD14"/>
		<stop  offset="1" style="stop-color:#FFB52F"/>
	</linearGradient>
	<path class="st31" d="M491.6,965.9c0,23.9-17.4,43.7-40.2,47.4c-2.5,0.4-5.1,0.6-7.7,0.6c-17.9,0-33.5-9.8-41.7-24.3
		c-4-7-6.2-15.1-6.2-23.7c0-26.5,21.5-48,48-48c7.2,0,14.1,1.6,20.3,4.5c5.1,2.3,9.6,5.6,13.6,9.5
		C486.2,940.6,491.6,952.6,491.6,965.9z"/>
	<polygon class="st32" points="381.9,1294.1 322.4,1294.1 321.4,1292.4 313,1277 304.6,1262 292.9,1240.9 260.5,1182.5 
		244.3,1153.4 229,1125.8 221.6,1112.5 209.5,1090.6 220.1,1081.8 225,1077.7 231.6,1086.8 253.2,1116.6 258.1,1123.3 279.8,1153.2 
		316.9,1204.5 323,1212.8 345.8,1244.4 362.4,1267.3 380.6,1292.4 	"/>
	<polygon class="st32" points="213.1,1069.1 251,1094 396.5,926.2 379,913.1 	"/>
	<path class="st33" d="M481,917.9l-7.8,10.3l-48.9,64.3l-9.1,12l-7.1,9.4c-2.7,3.5-7.3,4.5-11.1,2.9c-1.1-0.5-2.1-1.2-3-2.1
		c-16.3-16.8-22.8-40.4-18.3-62.6l0,0c0.8-1.9,0.7-3.1,1.5-6c1.9-7.1-1.7-14.8-7.3-20.2c-0.7-0.6-1.4-1.2-2.1-1.7
		c-0.7-0.6-1.5-1.1-2.3-1.5L348,909.4c-0.4-0.3-0.5-1-0.2-1.4l0.7-0.9l7.3-9.4l6.9-8.8c0.3-0.4,0.9-0.5,1.4-0.2l17.5,12.8
		c0.7,0.6,1.4,1.2,2.1,1.8c0.8,0.6,1.5,1.1,2.3,1.5c6.6,4,14.5,4.4,21.4,1.6l0,0c2.7-1.6,3.7-2,5.4-3c20.2-10.2,44.6-10.3,65.2,0.9
		C483,906.9,484.4,913.4,481,917.9z"/>
	
		<linearGradient id="SVGID_21_" gradientUnits="userSpaceOnUse" x1="224.4961" y1="-513.8499" x2="341.3977" y2="-513.8499" gradientTransform="matrix(1 0 0 1 0 1600)">
		<stop  offset="0" style="stop-color:#9D37D3"/>
		<stop  offset="1" style="stop-color:#7304AD"/>
	</linearGradient>
	<path class="st34" d="M273.8,1086.2c0,1.6-0.1,3.1-0.3,4.6c-1.6,11.4-9.1,21-19.3,25.4c-2.5,1.1-5.2,1.9-7.9,2.3
		c-0.7,0.1-1.4,0.2-2.1,0.3c-1,0.1-2,0.1-3,0.1c-2.2,0-4.4-0.2-6.5-0.7c-13.5-2.7-24-13.7-25.9-27.4c-0.2-1.5-0.3-3.1-0.3-4.7
		c0-4.8,1-9.4,2.9-13.5c0.8-1.8,1.8-3.6,3-5.2c1.1-1.6,2.3-3,3.6-4.4l0,0c5.9-5.9,14.1-9.6,23.2-9.6c3.1,0,6.1,0.4,8.9,1.2
		C263.8,1058.6,273.8,1071.2,273.8,1086.2z"/>
	<path class="st35" d="M258.1,1123.3c-3.5,2.2-7.5,3.7-11.8,4.4c-0.7,0.1-1.4,0.2-2.1,0.3c-1,0.1-2,0.1-3,0.1
		c-4.3,0-8.4-0.8-12.1-2.3l-7.3-13.3c5.4,4,12.2,6.4,19.4,6.4c1,0,2,0,3-0.1c0.7-0.1,1.4-0.1,2.1-0.3c2.4-0.4,4.7-1,6.9-1.9
		L258.1,1123.3z"/>
	<path class="st33" d="M408.6,1314.3H291.5c0-3,0.3-6,1-8.8c0-0.1,0-0.2,0.1-0.4c0.4-1.7,0.9-3.3,1.5-4.9c1-2.7,2.3-5.4,4-7.9
		c3.7-5.9,8.8-11.1,15-15.3c3.9-2.6,8.2-4.8,12.8-6.5c7.4-2.8,15.6-4.3,24.3-4.3c4.3,0,8.4,0.4,12.4,1.1c3.8,0.7,7.5,1.6,11,2.9
		c0.3,0.1,0.7,0.3,1.1,0.4c11.9,4.5,21.7,12.2,27.6,21.8c2.5,4,4.3,8.2,5.4,12.8c0.1,0.3,0.1,0.5,0.2,0.8
		C408.2,1308.6,408.6,1311.4,408.6,1314.3z"/>
	<path class="st35" d="M362.4,1267.3c-4-0.7-8.1-1.1-12.4-1.1c-8.7,0-16.9,1.6-24.3,4.3c-4.6,1.7-8.9,4-12.8,6.5l-8.4-15
		c5.7-5.8,12.9-10.4,21.1-13.5c6.2-2.3,12.9-3.8,20.1-4.2L362.4,1267.3z"/>
	
		<linearGradient id="SVGID_22_" gradientUnits="userSpaceOnUse" x1="416.2888" y1="-578.2815" x2="344.0769" y2="-723.8605" gradientTransform="matrix(1 0 0 1 0 1600)">
		<stop  offset="0" style="stop-color:#9D37D3"/>
		<stop  offset="1" style="stop-color:#7304AD"/>
	</linearGradient>
	<path class="st36" d="M424.3,992.5l-16.2,21.4c-2.7,3.5-7.3,4.5-11.1,2.9c-1.1-0.5-2.1-1.2-3-2.1c-16.3-16.8-22.8-40.4-18.3-62.6
		l0,0c0.8-1.9,0.7-3.1,1.5-6c1.9-7.1-1.7-14.8-7.3-20.2c-0.7-0.6-1.4-1.2-2.1-1.7c-0.7-0.6-1.5-1.1-2.3-1.5L348,909.4
		c-0.4-0.3-0.5-1-0.2-1.4l0.7-0.9c17,2.1,35.8,11.7,43.3,25.6c7.5,13.9-1.2,23.2,6.9,39C404.9,983.4,415.2,988.7,424.3,992.5z"/>
	<path class="st37" d="M477.5,931.9c-7,6.3-16.6,15.2-22.3,28.2c-7.9,18.1-5.8,38.5-3.8,53.1c-2.5,0.4-5.1,0.6-7.7,0.6
		c-10.6,0-20.5-3.5-28.5-9.4l9.1-12l48.9-64.3C474.7,929.3,476.1,930.6,477.5,931.9z"/>
	
		<linearGradient id="SVGID_23_" gradientUnits="userSpaceOnUse" x1="346.7235" y1="-300.671" x2="258.3362" y2="-345.2979" gradientTransform="matrix(1 0 0 1 0 1600)">
		<stop  offset="0" style="stop-color:#9D37D3"/>
		<stop  offset="1" style="stop-color:#7304AD"/>
	</linearGradient>
	<path class="st38" d="M321.2,1314.3h-29.8c0-3,0.3-6,1-8.8c0-0.1,0-0.2,0.1-0.4c0.4-1.7,0.9-3.3,1.5-4.9
		c4.9-13.2,16.6-24.1,31.8-29.8c7.4-2.8,15.6-4.3,24.3-4.3c8.3,0,16.2,1.4,23.4,4c0.3,0.1,0.7,0.3,1.1,0.4
		c-11.6,2.9-40.3,3.5-49.9,22C321.2,1299,320,1307.9,321.2,1314.3z"/>
	
		<linearGradient id="SVGID_24_" gradientUnits="userSpaceOnUse" x1="277.1572" y1="-477.0068" x2="172.3055" y2="-576.6592" gradientTransform="matrix(1 0 0 1 0 1600)">
		<stop  offset="0" style="stop-color:#9D37D3"/>
		<stop  offset="1" style="stop-color:#7304AD"/>
	</linearGradient>
	<path class="st39" d="M216.6,1090.4c-2.2,11.4,13.8,21.3,18,27.8c-13.5-2.7-24-13.7-25.9-27.4c-0.2-1.5-0.3-3.1-0.3-4.7
		c0-4.8,1-9.4,2.9-13.5c0.8-1.8,1.8-3.6,3-5.2c1.1-1.6,2.3-3,3.6-4.4l0,0c5.9-5.9,14.1-9.6,23.2-9.6c3.1,0,6.1,0.4,8.9,1.2
		c1.9,1.8,3.2,3.9,3.2,6.3C253.3,1072.7,219.5,1074.8,216.6,1090.4z"/>
</g>
</svg>
