<?xml version="1.0" encoding="utf-8"?>
<!-- Generator: Adobe Illustrator 21.0.2, SVG Export Plug-In . SVG Version: 6.00 Build 0)  -->
<svg version="1.1" id="Layer_1" xmlns="http://www.w3.org/2000/svg" xmlns:xlink="http://www.w3.org/1999/xlink" x="0px" y="0px"
	 viewBox="0 0 128 125" style="enable-background:new 0 0 128 125;" xml:space="preserve">
<style type="text/css">
	.st0{display:none;}
	.st1{display:inline;fill:#D83636;}
	.st2{display:inline;}
	.st3{fill:#9400D3;}
</style>
<g class="st0">
	<path class="st1" d="M153,99.5c-20.7,0-37.5-16.8-37.5-37.5s16.8-37.5,37.5-37.5s37.5,16.8,37.5,37.5S173.7,99.5,153,99.5z"/>
	<path class="st2" d="M153,25c20.4,0,37,16.6,37,37s-16.6,37-37,37s-37-16.6-37-37S132.6,25,153,25 M153,24c-21,0-38,17-38,38
		s17,38,38,38s38-17,38-38S174,24,153,24L153,24z"/>
</g>
<g>
	<path class="st3" d="M159.8,47.5"/>
	<g>
		<path class="st3" d="M72.5,49.4c-0.6-0.6-1.4-1.1-2.3-1.5c-0.9-0.4-1.9-0.5-3-0.6h-6.9v14.2h6.9c1.1,0,2.1-0.2,3-0.5
			c0.9-0.3,1.6-0.8,2.3-1.4c0.6-0.6,1.1-1.3,1.4-2.2c0.3-0.9,0.5-1.8,0.5-2.8c0-1.1-0.2-2-0.5-2.9C73.6,50.8,73.1,50,72.5,49.4z"/>
		<path class="st3" d="M64,5.1L7.1,62L64,118.9L120.9,62L64,5.1z M77.2,63.5c-1.2,1.1-2.7,1.9-4.4,2.5s-3.6,0.9-5.6,0.9h-6.9v15.5
			h-6.7V42h13.5c2,0,3.9,0.3,5.6,0.9s3.2,1.4,4.4,2.5c1.2,1.1,2.2,2.4,2.9,3.9c0.7,1.5,1,3.3,1,5.2c0,1.9-0.3,3.6-1,5.1
			C79.4,61.2,78.5,62.5,77.2,63.5z"/>
	</g>
</g>
</svg>
