<?xml version="1.0" encoding="utf-8"?>
<!-- Generator: Adobe Illustrator 21.0.2, SVG Export Plug-In . SVG Version: 6.00 Build 0)  -->
<svg version="1.1" id="Layer_1" xmlns="http://www.w3.org/2000/svg" xmlns:xlink="http://www.w3.org/1999/xlink" x="0px" y="0px"
	 viewBox="0 0 128 125" style="enable-background:new 0 0 128 125;" xml:space="preserve">
<style type="text/css">
	.st0{display:none;}
	.st1{display:inline;fill:#D83636;}
	.st2{display:inline;}
	.st3{fill:#9400D3;}
</style>
<g class="st0">
	<path class="st1" d="M153,99.5c-20.7,0-37.5-16.8-37.5-37.5s16.8-37.5,37.5-37.5s37.5,16.8,37.5,37.5S173.7,99.5,153,99.5z"/>
	<path class="st2" d="M153,25c20.4,0,37,16.6,37,37s-16.6,37-37,37s-37-16.6-37-37S132.6,25,153,25 M153,24c-21,0-38,17-38,38
		s17,38,38,38s38-17,38-38S174,24,153,24L153,24z"/>
</g>
<g>
	<g>
		<path class="st3" d="M63,2C29.9,2,3,28.9,3,62s26.9,60,60,60s60-26.9,60-60S96.1,2,63,2z M83.6,58.9c-0.8,1.9-2,3.5-3.6,4.9
			c-1.5,1.4-3.4,2.5-5.6,3.2c-2.2,0.8-4.6,1.2-7.3,1.2h-7.4v18.2h-9.6V36.7h17c2.7,0,5.2,0.4,7.3,1.2c2.2,0.8,4,1.9,5.6,3.3
			c1.5,1.4,2.7,3.1,3.6,5c0.8,2,1.2,4.1,1.2,6.5C84.8,55,84.4,57,83.6,58.9z"/>
	</g>
	<g>
		<path class="st3" d="M73.2,46.9c-0.7-0.8-1.5-1.3-2.5-1.8c-1-0.4-2.2-0.6-3.6-0.6h-7.4v15.9h7.4c1.4,0,2.6-0.2,3.6-0.6
			c1-0.4,1.8-1,2.5-1.7s1.2-1.5,1.5-2.4s0.5-1.9,0.5-2.9c0-1.2-0.2-2.2-0.5-3.2C74.3,48.5,73.8,47.7,73.2,46.9z"/>
	</g>
</g>
</svg>
