<?xml version="1.0" encoding="utf-8"?>
<!-- Generator: Adobe Illustrator 21.0.2, SVG Export Plug-In . SVG Version: 6.00 Build 0)  -->
<svg version="1.1" id="Layer_1" xmlns="http://www.w3.org/2000/svg" xmlns:xlink="http://www.w3.org/1999/xlink" x="0px" y="0px"
	 viewBox="0 0 24 24" style="enable-background:new 0 0 24 24;" xml:space="preserve">
<style type="text/css">
	.st0{fill:none;stroke:#9400D3;stroke-linecap:round;stroke-linejoin:round;stroke-miterlimit:10;}
</style>
<g>
	<g>
		<path class="st0" d="M13.5,24c0-0.6,2.3-1.7,4-2s2.5-0.6,2.5-1.5s-0.5-0.9-0.5-1.5s0.5-0.5,0.5-0.5"/>
		<path class="st0" d="M20,18l0.5-0.5L20,16c0,0,1.5-0.3,1.5-1s-2.2-4.5-2.2-4.5s0.2-0.9,0.2-2.5c0-1.8-2.5-7-9-7s-9,5-9,8
			c0,3.9,4,8.2,4,10s-3,5-3,5"/>
	</g>
	<g>
		<path class="st0" d="M10.5,8c0-1.2-1.1-2.2-2.3-2c-1,0.2-1.7,1.1-1.7,2.1v0.1c0,0.5,0.2,1,0.6,1.4l3.4,3.4l3.4-3.4
			c0.4-0.4,0.6-0.9,0.6-1.4V8.1c0-1-0.7-1.9-1.7-2.1C11.6,5.8,10.5,6.8,10.5,8"/>
	</g>
</g>
</svg>
