<?xml version="1.0" encoding="utf-8"?>
<!-- Generator: Adobe Illustrator 21.0.2, SVG Export Plug-In . SVG Version: 6.00 Build 0)  -->
<svg version="1.1" id="Layer_1" xmlns="http://www.w3.org/2000/svg" xmlns:xlink="http://www.w3.org/1999/xlink" x="0px" y="0px"
	 viewBox="0 0 24 24" style="enable-background:new 0 0 24 24;" xml:space="preserve">
<style type="text/css">
	.st0{fill:none;stroke:#9400D3;stroke-linecap:round;stroke-linejoin:round;stroke-miterlimit:10;}
</style>
<g>
	<path class="st0" d="M17.6,20.3l-2.4-0.8C14,19,13.6,17,13.6,16.7c0.6-0.5,1.2-1.3,1.2-2s0.4-0.8,0.4-0.8s0.4-1,0.4-1.6
		c0,0-0.1-0.4-0.4-0.4c0-0.4,0-1.2,0-2.4c0-2-1-1.8-0.8-2c0-0.5-0.6-1.6-2.8-1.6c-2.3,0-3.7,2.2-3.7,3.7c0,1.2,0,2,0,2.4
		c-0.3,0-0.4,0.4-0.4,0.4C7.5,13,7.9,14,7.9,14s0.4,0.1,0.4,0.8s0.6,1.5,1.2,2c0,0.4-0.4,2.3-1.6,2.8l-2.4,0.8"/>
	<circle class="st0" cx="11.5" cy="12.5" r="10.5"/>
</g>
</svg>
