<?xml version="1.0" encoding="utf-8"?>
<!-- Generator: Adobe Illustrator 21.0.2, SVG Export Plug-In . SVG Version: 6.00 Build 0)  -->
<svg version="1.1" id="Layer_1" xmlns="http://www.w3.org/2000/svg" xmlns:xlink="http://www.w3.org/1999/xlink" x="0px" y="0px"
	 viewBox="0 0 48 48" style="enable-background:new 0 0 48 48;" xml:space="preserve">
<style type="text/css">
	.st0{fill:none;stroke:#9400D3;stroke-width:2;stroke-linecap:round;stroke-linejoin:round;stroke-miterlimit:10;}
</style>
<g>
	<path class="st0" d="M21.1,32.6c0,0,10.1-6.3,17.2-13.4S46,2,46,2S35.9,2.6,28.8,9.7S15.4,26.9,15.4,26.9L21.1,32.6z"/>
	<polygon class="st0" points="15.4,26.9 7.7,30.7 17.3,40.3 21.1,32.6 	"/>
	<polyline class="st0" points="31.7,25.6 30.7,36.4 25,42.2 25,30.7 	"/>
	<circle class="st0" cx="34.5" cy="13.5" r="1.9"/>
	<path class="st0" d="M14.4,38.3C13.7,39,11,40,7.8,40.3c0.3-3.2,1.1-6,1.8-6.7"/>
	<path class="st0" d="M7.8,30.8c-1.1,0.3-2.1,0.9-3,1.8C1.9,35.6,2,46,2,46s10.4,0.1,13.4-2.9c0.9-0.9,1.5-1.9,1.8-3"/>
	<polyline class="st0" points="22.4,16.3 11.6,17.3 5.8,23 17.3,23 	"/>
</g>
</svg>
