<?xml version="1.0" encoding="utf-8"?>
<!-- Generator: Adobe Illustrator 21.0.2, SVG Export Plug-In . SVG Version: 6.00 Build 0)  -->
<svg version="1.1" id="Layer_1" xmlns="http://www.w3.org/2000/svg" xmlns:xlink="http://www.w3.org/1999/xlink" x="0px" y="0px"
	 viewBox="0 0 48 48" style="enable-background:new 0 0 48 48;" xml:space="preserve">
<style type="text/css">
	.st0{fill:none;stroke:#9400D3;stroke-width:2;stroke-linecap:round;stroke-linejoin:round;stroke-miterlimit:10;}
</style>
<g>
	<path class="st0" d="M36.8,25.7c-0.9,0-1.8,0.3-2.5,0.8v4.1c0,0.8-0.1,1.5-0.3,2.2c0.7,0.6,1.7,1.1,2.7,1.1c2.3,0,4.1-1.8,4.1-4.1
		C40.9,27.6,39,25.7,36.8,25.7z"/>
	<path class="st0" d="M28.3,40.5H15.8c-3.3,0-6-2.7-6-6V22.8c0-1.1,0.9-2,2-2h20.5c1.1,0,2,0.9,2,2v11.6
		C34.3,37.8,31.6,40.5,28.3,40.5z"/>
	<path class="st0" d="M18,11c0,1.7,1.6,2,1.6,3.3S18,16,18,17.5"/>
	<path class="st0" d="M22.9,11c0,1.7,1.6,2,1.6,3.3s-1.6,1.7-1.6,3.3"/>
	<path class="st0" d="M27.8,11c0,1.7,1.6,2,1.6,3.3s-1.6,1.7-1.6,3.3"/>
	<path class="st0" d="M34,47H10.1c-1.1,0-2-0.9-2-2v-1.3H36V45C36,46.1,35.1,47,34,47z"/>
</g>
</svg>
